<svg xmlns="http://www.w3.org/2000/svg" xmlns:xlink="http://www.w3.org/1999/xlink" width="367" height="105" viewBox="0 0 367 105">
  <defs>
    <clipPath id="clip-path">
      <path id="Path_1" data-name="Path 1" d="M17.579,17.377q-6.37,0-7.74-6.489a70.94,70.94,0,0,1-1.25-14.17q0-10.181,1.548-29.53v-1.131a2.206,2.206,0,0,0-1.131-2.143q-1.131-.6-8.752-1.429-4.942-.536-4.942-3.513a3.376,3.376,0,0,1,2.381-3.334,21.435,21.435,0,0,1,4.7-1.31q7.918-1.25,8.454-2.441a3.065,3.065,0,0,0,.179-1.25q0-2.441.149-4.406a25.006,25.006,0,0,1,1.34-5.537q1.548-4.822,5.775-4.822A5.784,5.784,0,0,1,23.83-61,12.924,12.924,0,0,1,25.5-54.9l-.06,3.751a3.45,3.45,0,0,0,.625,2.173q.625.8,5.388.8h3.215a52.687,52.687,0,0,1,5.269.238,8.585,8.585,0,0,1,4.555,2.024,6.223,6.223,0,0,1,2.56,4.822q0,.179-.089,1.7t-3.126,3.3a9.261,9.261,0,0,1-4.7,1.31,29.443,29.443,0,0,1-5.18-.417A16.322,16.322,0,0,0,30.8-35.55q-.655,0-1.786.119-2.2.238-2.56,12.681-.119,4.346-.119,11.967,0,8.037-.238,13.6a31.476,31.476,0,0,1-1.548,9.2Q22.7,17.377,17.579,17.377Zm38.044.3a11.7,11.7,0,0,1-8.633-3.394A43.983,43.983,0,0,1,38.357.409q-6.311-15.063-6.311-22.683a10.263,10.263,0,0,1,.714-4.048q1.429-3.513,4.7-3.513a4.86,4.86,0,0,1,3.751,1.965q2.2,2.679,8.037,16.789,2.084,5,3.3,7.382t2.292,2.381a3.87,3.87,0,0,0,2.173-.536,6.09,6.09,0,0,0,1.7-2.322q1.25-2.381,4.168-9.288,2.917-7.263,8.156-7.263t8.811,8.692Q82.533-5.6,84.26-3.46a3.186,3.186,0,0,0,2.322,1.548q4.287,0,8.1-19.706.179-.893.893-5.626t4.048-6.638a5.145,5.145,0,0,1,2.5-.834,26.887,26.887,0,0,1,3.6.417q2.59.417,3.483,4.108a17.122,17.122,0,0,1,.476,4.048,28.362,28.362,0,0,1-.238,3.632A90.74,90.74,0,0,1,102.3,1.957a37.321,37.321,0,0,1-6.37,9.764,13.935,13.935,0,0,1-10.836,4.525q-4.584,0-7.025-2.739A23.257,23.257,0,0,1,74.2,7.613q-2.024-4.465-3.929-4.465a2.561,2.561,0,0,0-.476.06q-.3.06-5.061,8.037Q60.921,17.675,55.623,17.675ZM131.234.886q3.274-.179,5.418-3.632a14.378,14.378,0,0,0,2.143-7.74,12.037,12.037,0,0,0-1.131-5.12q-2.5-5.358-7.918-5.358a4.43,4.43,0,0,0-3.929,2.262,14.585,14.585,0,0,0-1.905,7.859,23.782,23.782,0,0,0,.566,4.793,11.269,11.269,0,0,0,2.262,4.822,5.188,5.188,0,0,0,4.2,2.114Zm.3,13.872H131q-6.609-.179-10.657-3.542a19.194,19.194,0,0,1-5.894-8.722A34.308,34.308,0,0,1,112.6-8.759a40.144,40.144,0,0,1,1.816-12.056,21.3,21.3,0,0,1,5.8-9.5,15.831,15.831,0,0,1,11.133-3.929,17.407,17.407,0,0,1,8.514,2.56,20.569,20.569,0,0,1,8.484,9.317,30.583,30.583,0,0,1,2.828,13.128A24.853,24.853,0,0,1,144.51,8.387Q138.5,14.758,131.531,14.758ZM185.471,2.97q4.406,0,4.406-8.395a24.357,24.357,0,0,0-3.453-13.157q-2.322-3.751-6.013-3.751-2.739,0-3.691,3.989a20.007,20.007,0,0,0-.476,4.465q0,8.156,3.751,13.693A6.409,6.409,0,0,0,185.471,2.97ZM166.479,17.318h-.3a6.088,6.088,0,0,1-5.537-2.977q-2.917-4.882-3.334-17.5-.179-5.358-.179-10.717,0-7.442.536-17.682.834-17.385,1.965-23.993,1.727-9.883,7.263-9.883,7.085,0,7.2,10.24.179,11.848.238,14.318a18.35,18.35,0,0,0,.774,4.852q.6,1.905,1.905,1.905a2.248,2.248,0,0,0,.714-.119,15.876,15.876,0,0,1,5.6-1.072A17.986,17.986,0,0,1,190-33.675a15.893,15.893,0,0,1,6.966,6.222,33.5,33.5,0,0,1,5.3,18.873A37.96,37.96,0,0,1,200.176,4.16a21.068,21.068,0,0,1-5.031,8.1,11.04,11.04,0,0,1-8.008,3.155q-5.715,0-11.788-4.942L172.314,8.03a.815.815,0,0,0-.893.774,6.323,6.323,0,0,0-.06.893,8.243,8.243,0,0,0,.089,1.161,9.041,9.041,0,0,1,.089,1.28,10.923,10.923,0,0,1-.566,3.274Q170.408,17.2,166.479,17.318Zm57.869-37.627q3.989,0,6.192-4.346a11.919,11.919,0,0,0,1.548-4.822,1.368,1.368,0,0,0-1.548-1.548q-.06,0-.953.03a9.038,9.038,0,0,0-3.215,1.34,14.779,14.779,0,0,0-3.929,3.155,4.534,4.534,0,0,0-1.31,2.977Q221.133-20.309,224.348-20.309Zm4.108,32.03h-.536a19.53,19.53,0,0,1-11.1-3.007A19.393,19.393,0,0,1,209.94.588,29.419,29.419,0,0,1,207.38-11.8a32.884,32.884,0,0,1,3.1-14.944,22.333,22.333,0,0,1,8.1-9.228,19.232,19.232,0,0,1,10.24-3.1,14.59,14.59,0,0,1,9.228,3.155q4.346,3.572,4.346,10.359a11.9,11.9,0,0,1-2.59,7.65,17.565,17.565,0,0,1-7.174,5.15,37.613,37.613,0,0,1-9.764,2.56q-3.1.417-3.1,3.87a6.77,6.77,0,0,0,1.786,4.168Q223.515.29,229.171.29A25.741,25.741,0,0,0,242.149-3.46a12.193,12.193,0,0,1,5.835-2.024,3.069,3.069,0,0,1,2.471,1.012,3.554,3.554,0,0,1,.863,2.381,5.985,5.985,0,0,1-1.905,4.346Q240.185,11.543,228.456,11.721Zm41.913-32.03q3.989,0,6.192-4.346a11.919,11.919,0,0,0,1.548-4.822,1.368,1.368,0,0,0-1.548-1.548q-.06,0-.953.03a9.038,9.038,0,0,0-3.215,1.34,14.779,14.779,0,0,0-3.929,3.155,4.534,4.534,0,0,0-1.31,2.977Q267.155-20.309,270.37-20.309Zm4.108,32.03h-.536a19.53,19.53,0,0,1-11.1-3.007A19.393,19.393,0,0,1,255.962.588,29.419,29.419,0,0,1,253.4-11.8a32.884,32.884,0,0,1,3.1-14.944,22.333,22.333,0,0,1,8.1-9.228,19.233,19.233,0,0,1,10.24-3.1,14.59,14.59,0,0,1,9.228,3.155q4.346,3.572,4.346,10.359a11.9,11.9,0,0,1-2.59,7.65,17.565,17.565,0,0,1-7.174,5.15,37.612,37.612,0,0,1-9.764,2.56q-3.1.417-3.1,3.87a6.77,6.77,0,0,0,1.786,4.168Q269.536.29,275.192.29A25.741,25.741,0,0,0,288.171-3.46a12.193,12.193,0,0,1,5.835-2.024,3.069,3.069,0,0,1,2.471,1.012,3.554,3.554,0,0,1,.863,2.381,5.985,5.985,0,0,1-1.905,4.346Q286.206,11.543,274.478,11.721Zm52.154,6.073a28.3,28.3,0,0,1-13.693-3.632,23.171,23.171,0,0,1-9.585-9.347,15.8,15.8,0,0,1-1.965-7.74q0-7.144,3.691-9.645a7.22,7.22,0,0,1,3.989-1.191q5.061,0,6.906,5.656,2.2,6.847,6.847,9.466a14.881,14.881,0,0,0,7.323,2.2,28.228,28.228,0,0,0,3.126-.357A2.57,2.57,0,0,0,335.681.35q0-3.989-9.347-8.871a39.47,39.47,0,0,1-10.3-7.918,13.636,13.636,0,0,1-3.929-9.645,15.43,15.43,0,0,1,4.733-11.133A15.812,15.812,0,0,1,328.6-42.04a13.958,13.958,0,0,1,7,1.875,10.3,10.3,0,0,1,4.674,5.567,4.14,4.14,0,0,1,.3,1.488,2.8,2.8,0,0,1-.536,1.727,2.842,2.842,0,0,1-2.441,1.131,11.881,11.881,0,0,1-3.394-.8,16.158,16.158,0,0,0-5.3-.8,5.649,5.649,0,0,0-3.9,1.25,4.541,4.541,0,0,0-1.4,3.572q0,2.5,3.155,4.882a61.051,61.051,0,0,0,6.906,4.644q3.81,2.262,7.5,4.882,8.335,6.073,8.335,13.4a13.13,13.13,0,0,1-3.989,9.526,23.508,23.508,0,0,1-8.841,5.626A29.224,29.224,0,0,1,326.631,17.794Z" transform="translate(4.688 65.438)" fill="#ffd938"/>
    </clipPath>
    <clipPath id="clip-path-2">
      <path id="Path_3" data-name="Path 3" d="M22.267,82.815q-6.37,0-7.74-6.489a70.94,70.94,0,0,1-1.25-14.17q0-10.181,1.548-29.53V31.495a2.206,2.206,0,0,0-1.131-2.143q-1.131-.6-8.752-1.429Q0,27.387,0,24.41a3.376,3.376,0,0,1,2.381-3.334,21.435,21.435,0,0,1,4.7-1.31q7.918-1.25,8.454-2.441a3.065,3.065,0,0,0,.179-1.25q0-2.441.149-4.406a25.006,25.006,0,0,1,1.34-5.537Q18.754,1.31,22.981,1.31a5.784,5.784,0,0,1,5.537,3.126,12.924,12.924,0,0,1,1.667,6.1l-.06,3.751a3.45,3.45,0,0,0,.625,2.173q.625.8,5.388.8h3.215a52.687,52.687,0,0,1,5.269.238,8.585,8.585,0,0,1,4.555,2.024,6.223,6.223,0,0,1,2.56,4.822q0,.179-.089,1.7t-3.126,3.3a9.261,9.261,0,0,1-4.7,1.31,29.443,29.443,0,0,1-5.18-.417,16.322,16.322,0,0,0-3.155-.357q-.655,0-1.786.119-2.2.238-2.56,12.681-.119,4.346-.119,11.967,0,8.037-.238,13.6a31.475,31.475,0,0,1-1.548,9.2Q27.387,82.815,22.267,82.815Zm38.044.3a11.7,11.7,0,0,1-8.633-3.394,43.983,43.983,0,0,1-8.633-13.872q-6.311-15.063-6.311-22.683a10.263,10.263,0,0,1,.714-4.048q1.429-3.513,4.7-3.513A4.86,4.86,0,0,1,45.9,37.567q2.2,2.679,8.037,16.789,2.084,5,3.3,7.382t2.292,2.381a3.87,3.87,0,0,0,2.173-.536,6.09,6.09,0,0,0,1.7-2.322q1.25-2.381,4.168-9.288,2.917-7.263,8.156-7.263T84.541,53.4q2.679,6.43,4.406,8.573a3.186,3.186,0,0,0,2.322,1.548q4.287,0,8.1-19.706.179-.893.893-5.626t4.048-6.638a5.145,5.145,0,0,1,2.5-.834,26.886,26.886,0,0,1,3.6.417q2.59.417,3.483,4.108a17.122,17.122,0,0,1,.476,4.048,28.362,28.362,0,0,1-.238,3.632,90.74,90.74,0,0,1-7.144,24.469,37.321,37.321,0,0,1-6.37,9.764,13.935,13.935,0,0,1-10.836,4.525q-4.584,0-7.025-2.739a23.258,23.258,0,0,1-3.87-5.894q-2.024-4.465-3.929-4.465a2.561,2.561,0,0,0-.476.06q-.3.06-5.061,8.037Q65.609,83.112,60.31,83.112Zm75.611-16.789q3.274-.179,5.418-3.632a14.378,14.378,0,0,0,2.143-7.74,12.037,12.037,0,0,0-1.131-5.12q-2.5-5.358-7.918-5.358a4.43,4.43,0,0,0-3.929,2.262,14.585,14.585,0,0,0-1.905,7.859,23.782,23.782,0,0,0,.566,4.793,11.27,11.27,0,0,0,2.262,4.822,5.188,5.188,0,0,0,4.2,2.114Zm.3,13.872h-.536q-6.609-.179-10.657-3.542a19.194,19.194,0,0,1-5.894-8.722,34.307,34.307,0,0,1-1.846-11.252A40.144,40.144,0,0,1,119.1,44.622a21.3,21.3,0,0,1,5.8-9.5A15.831,15.831,0,0,1,136.04,31.2a17.407,17.407,0,0,1,8.514,2.56,20.569,20.569,0,0,1,8.484,9.317A30.583,30.583,0,0,1,155.866,56.2,24.853,24.853,0,0,1,149.2,73.825Q143.184,80.2,136.219,80.2Zm53.94-11.788q4.406,0,4.406-8.395a24.357,24.357,0,0,0-3.453-13.157Q188.789,43.1,185.1,43.1q-2.739,0-3.691,3.989a20.007,20.007,0,0,0-.476,4.465q0,8.156,3.751,13.693A6.409,6.409,0,0,0,190.158,68.407ZM171.166,82.755h-.3a6.088,6.088,0,0,1-5.537-2.977Q162.415,74.9,162,62.275q-.179-5.358-.179-10.717,0-7.442.536-17.682.834-17.385,1.965-23.993Q166.046,0,171.583,0q7.085,0,7.2,10.24.179,11.848.238,14.318a18.35,18.35,0,0,0,.774,4.852q.6,1.905,1.905,1.905a2.248,2.248,0,0,0,.714-.119,15.876,15.876,0,0,1,5.6-1.072,17.986,17.986,0,0,1,6.668,1.637,15.893,15.893,0,0,1,6.966,6.222,33.5,33.5,0,0,1,5.3,18.873A37.96,37.96,0,0,1,204.864,69.6a21.068,21.068,0,0,1-5.031,8.1,11.04,11.04,0,0,1-8.008,3.155q-5.715,0-11.788-4.941L177,73.468a.815.815,0,0,0-.893.774,6.323,6.323,0,0,0-.06.893,8.243,8.243,0,0,0,.089,1.161,9.041,9.041,0,0,1,.089,1.28,10.923,10.923,0,0,1-.566,3.274Q175.1,82.636,171.166,82.755Zm57.869-37.627q3.989,0,6.192-4.346a11.919,11.919,0,0,0,1.548-4.822,1.368,1.368,0,0,0-1.548-1.548q-.06,0-.953.03a9.038,9.038,0,0,0-3.215,1.34,14.779,14.779,0,0,0-3.929,3.155,4.534,4.534,0,0,0-1.31,2.977Q225.821,45.128,229.036,45.128Zm4.108,32.03h-.536a18.615,18.615,0,0,1-17.98-11.133,29.419,29.419,0,0,1-2.56-12.384,32.884,32.884,0,0,1,3.1-14.944,22.333,22.333,0,0,1,8.1-9.228,19.232,19.232,0,0,1,10.24-3.1,14.59,14.59,0,0,1,9.228,3.155q4.346,3.572,4.346,10.359a11.9,11.9,0,0,1-2.59,7.65,17.565,17.565,0,0,1-7.174,5.15,37.613,37.613,0,0,1-9.764,2.56q-3.1.417-3.1,3.87a6.77,6.77,0,0,0,1.786,4.168q1.965,2.441,7.621,2.441a25.741,25.741,0,0,0,12.979-3.751,12.193,12.193,0,0,1,5.835-2.024,3.069,3.069,0,0,1,2.471,1.012,3.554,3.554,0,0,1,.863,2.381,5.985,5.985,0,0,1-1.905,4.346Q244.872,76.98,233.144,77.159Zm41.913-32.03q3.989,0,6.192-4.346A11.919,11.919,0,0,0,282.8,35.96a1.368,1.368,0,0,0-1.548-1.548q-.06,0-.953.03a9.038,9.038,0,0,0-3.215,1.34,14.779,14.779,0,0,0-3.929,3.155,4.534,4.534,0,0,0-1.31,2.977Q271.842,45.128,275.057,45.128Zm4.108,32.03h-.536a18.615,18.615,0,0,1-17.98-11.133,29.419,29.419,0,0,1-2.56-12.384,32.884,32.884,0,0,1,3.1-14.944,22.333,22.333,0,0,1,8.1-9.228,19.233,19.233,0,0,1,10.24-3.1,14.59,14.59,0,0,1,9.228,3.155Q293.1,33.1,293.1,39.889a11.9,11.9,0,0,1-2.59,7.65,17.565,17.565,0,0,1-7.174,5.15,37.612,37.612,0,0,1-9.764,2.56q-3.1.417-3.1,3.87a6.77,6.77,0,0,0,1.786,4.168q1.965,2.441,7.621,2.441a25.741,25.741,0,0,0,12.979-3.751,12.193,12.193,0,0,1,5.835-2.024,3.069,3.069,0,0,1,2.471,1.012,3.554,3.554,0,0,1,.863,2.381,5.985,5.985,0,0,1-1.905,4.346Q290.894,76.98,279.165,77.159Zm52.154,6.073A28.3,28.3,0,0,1,317.625,79.6a23.171,23.171,0,0,1-9.585-9.347,15.8,15.8,0,0,1-1.965-7.74q0-7.144,3.691-9.645a7.22,7.22,0,0,1,3.989-1.191q5.061,0,6.906,5.656,2.2,6.847,6.847,9.466a14.881,14.881,0,0,0,7.323,2.2,28.228,28.228,0,0,0,3.126-.357,2.57,2.57,0,0,0,2.411-2.858q0-3.989-9.347-8.871A39.47,39.47,0,0,1,320.721,49a13.636,13.636,0,0,1-3.929-9.645,15.43,15.43,0,0,1,4.733-11.133A15.812,15.812,0,0,1,333.283,23.4a13.958,13.958,0,0,1,7,1.875,10.3,10.3,0,0,1,4.674,5.567,4.14,4.14,0,0,1,.3,1.488,2.8,2.8,0,0,1-.536,1.727,2.842,2.842,0,0,1-2.441,1.131,11.881,11.881,0,0,1-3.394-.8,16.158,16.158,0,0,0-5.3-.8,5.649,5.649,0,0,0-3.9,1.25,4.541,4.541,0,0,0-1.4,3.572q0,2.5,3.155,4.882a61.051,61.051,0,0,0,6.906,4.644q3.81,2.262,7.5,4.882,8.335,6.073,8.335,13.4a13.13,13.13,0,0,1-3.989,9.526,23.508,23.508,0,0,1-8.841,5.626A29.224,29.224,0,0,1,331.319,83.232Z" transform="translate(0 91.669) rotate(-15)" fill="#ffd938"/>
    </clipPath>
    <clipPath id="clip-Custom_Size_1">
      <rect width="367" height="105"/>
    </clipPath>
  </defs>
  <g id="Custom_Size_1" data-name="Custom Size – 1" clip-path="url(#clip-Custom_Size_1)">
    <rect width="367" height="105" fill="#fff"/>
    <g id="Group_1" data-name="Group 1" transform="translate(-304.93 -406.848)">
      <path id="Polygon_1" data-name="Polygon 1" d="M3.81,0l3.81,12.7H0Z" transform="matrix(-0.966, 0.259, -0.259, -0.966, 458.917, 506.923)" fill="#3b3b3b"/>
      <path id="Polygon_2" data-name="Polygon 2" d="M3.81,0l3.81,12.7H0Z" transform="matrix(-0.966, -0.259, 0.259, -0.966, 498.813, 508.896)" fill="#3b3b3b"/>
      <path id="Path_2" data-name="Path 2" d="M17.579,17.377q-6.37,0-7.74-6.489a70.94,70.94,0,0,1-1.25-14.17q0-10.181,1.548-29.53v-1.131a2.206,2.206,0,0,0-1.131-2.143q-1.131-.6-8.752-1.429-4.942-.536-4.942-3.513a3.376,3.376,0,0,1,2.381-3.334,21.435,21.435,0,0,1,4.7-1.31q7.918-1.25,8.454-2.441a3.065,3.065,0,0,0,.179-1.25q0-2.441.149-4.406a25.006,25.006,0,0,1,1.34-5.537q1.548-4.822,5.775-4.822A5.784,5.784,0,0,1,23.83-61,12.924,12.924,0,0,1,25.5-54.9l-.06,3.751a3.45,3.45,0,0,0,.625,2.173q.625.8,5.388.8h3.215a52.687,52.687,0,0,1,5.269.238,8.585,8.585,0,0,1,4.555,2.024,6.223,6.223,0,0,1,2.56,4.822q0,.179-.089,1.7t-3.126,3.3a9.261,9.261,0,0,1-4.7,1.31,29.443,29.443,0,0,1-5.18-.417A16.322,16.322,0,0,0,30.8-35.55q-.655,0-1.786.119-2.2.238-2.56,12.681-.119,4.346-.119,11.967,0,8.037-.238,13.6a31.476,31.476,0,0,1-1.548,9.2Q22.7,17.377,17.579,17.377Zm38.044.3a11.7,11.7,0,0,1-8.633-3.394A43.983,43.983,0,0,1,38.357.409q-6.311-15.063-6.311-22.683a10.263,10.263,0,0,1,.714-4.048q1.429-3.513,4.7-3.513a4.86,4.86,0,0,1,3.751,1.965q2.2,2.679,8.037,16.789,2.084,5,3.3,7.382t2.292,2.381a3.87,3.87,0,0,0,2.173-.536,6.09,6.09,0,0,0,1.7-2.322q1.25-2.381,4.168-9.288,2.917-7.263,8.156-7.263t8.811,8.692Q82.533-5.6,84.26-3.46a3.186,3.186,0,0,0,2.322,1.548q4.287,0,8.1-19.706.179-.893.893-5.626t4.048-6.638a5.145,5.145,0,0,1,2.5-.834,26.887,26.887,0,0,1,3.6.417q2.59.417,3.483,4.108a17.122,17.122,0,0,1,.476,4.048,28.362,28.362,0,0,1-.238,3.632A90.74,90.74,0,0,1,102.3,1.957a37.321,37.321,0,0,1-6.37,9.764,13.935,13.935,0,0,1-10.836,4.525q-4.584,0-7.025-2.739A23.257,23.257,0,0,1,74.2,7.613q-2.024-4.465-3.929-4.465a2.561,2.561,0,0,0-.476.06q-.3.06-5.061,8.037Q60.921,17.675,55.623,17.675ZM131.234.886q3.274-.179,5.418-3.632a14.378,14.378,0,0,0,2.143-7.74,12.037,12.037,0,0,0-1.131-5.12q-2.5-5.358-7.918-5.358a4.43,4.43,0,0,0-3.929,2.262,14.585,14.585,0,0,0-1.905,7.859,23.782,23.782,0,0,0,.566,4.793,11.269,11.269,0,0,0,2.262,4.822,5.188,5.188,0,0,0,4.2,2.114Zm.3,13.872H131q-6.609-.179-10.657-3.542a19.194,19.194,0,0,1-5.894-8.722A34.308,34.308,0,0,1,112.6-8.759a40.144,40.144,0,0,1,1.816-12.056,21.3,21.3,0,0,1,5.8-9.5,15.831,15.831,0,0,1,11.133-3.929,17.407,17.407,0,0,1,8.514,2.56,20.569,20.569,0,0,1,8.484,9.317,30.583,30.583,0,0,1,2.828,13.128A24.853,24.853,0,0,1,144.51,8.387Q138.5,14.758,131.531,14.758ZM185.471,2.97q4.406,0,4.406-8.395a24.357,24.357,0,0,0-3.453-13.157q-2.322-3.751-6.013-3.751-2.739,0-3.691,3.989a20.007,20.007,0,0,0-.476,4.465q0,8.156,3.751,13.693A6.409,6.409,0,0,0,185.471,2.97ZM166.479,17.318h-.3a6.088,6.088,0,0,1-5.537-2.977q-2.917-4.882-3.334-17.5-.179-5.358-.179-10.717,0-7.442.536-17.682.834-17.385,1.965-23.993,1.727-9.883,7.263-9.883,7.085,0,7.2,10.24.179,11.848.238,14.318a18.35,18.35,0,0,0,.774,4.852q.6,1.905,1.905,1.905a2.248,2.248,0,0,0,.714-.119,15.876,15.876,0,0,1,5.6-1.072A17.986,17.986,0,0,1,190-33.675a15.893,15.893,0,0,1,6.966,6.222,33.5,33.5,0,0,1,5.3,18.873A37.96,37.96,0,0,1,200.176,4.16a21.068,21.068,0,0,1-5.031,8.1,11.04,11.04,0,0,1-8.008,3.155q-5.715,0-11.788-4.942L172.314,8.03a.815.815,0,0,0-.893.774,6.323,6.323,0,0,0-.06.893,8.243,8.243,0,0,0,.089,1.161,9.041,9.041,0,0,1,.089,1.28,10.923,10.923,0,0,1-.566,3.274Q170.408,17.2,166.479,17.318Zm57.869-37.627q3.989,0,6.192-4.346a11.919,11.919,0,0,0,1.548-4.822,1.368,1.368,0,0,0-1.548-1.548q-.06,0-.953.03a9.038,9.038,0,0,0-3.215,1.34,14.779,14.779,0,0,0-3.929,3.155,4.534,4.534,0,0,0-1.31,2.977Q221.133-20.309,224.348-20.309Zm4.108,32.03h-.536a19.53,19.53,0,0,1-11.1-3.007A19.393,19.393,0,0,1,209.94.588,29.419,29.419,0,0,1,207.38-11.8a32.884,32.884,0,0,1,3.1-14.944,22.333,22.333,0,0,1,8.1-9.228,19.232,19.232,0,0,1,10.24-3.1,14.59,14.59,0,0,1,9.228,3.155q4.346,3.572,4.346,10.359a11.9,11.9,0,0,1-2.59,7.65,17.565,17.565,0,0,1-7.174,5.15,37.613,37.613,0,0,1-9.764,2.56q-3.1.417-3.1,3.87a6.77,6.77,0,0,0,1.786,4.168Q223.515.29,229.171.29A25.741,25.741,0,0,0,242.149-3.46a12.193,12.193,0,0,1,5.835-2.024,3.069,3.069,0,0,1,2.471,1.012,3.554,3.554,0,0,1,.863,2.381,5.985,5.985,0,0,1-1.905,4.346Q240.185,11.543,228.456,11.721Zm41.913-32.03q3.989,0,6.192-4.346a11.919,11.919,0,0,0,1.548-4.822,1.368,1.368,0,0,0-1.548-1.548q-.06,0-.953.03a9.038,9.038,0,0,0-3.215,1.34,14.779,14.779,0,0,0-3.929,3.155,4.534,4.534,0,0,0-1.31,2.977Q267.155-20.309,270.37-20.309Zm4.108,32.03h-.536a19.53,19.53,0,0,1-11.1-3.007A19.393,19.393,0,0,1,255.962.588,29.419,29.419,0,0,1,253.4-11.8a32.884,32.884,0,0,1,3.1-14.944,22.333,22.333,0,0,1,8.1-9.228,19.233,19.233,0,0,1,10.24-3.1,14.59,14.59,0,0,1,9.228,3.155q4.346,3.572,4.346,10.359a11.9,11.9,0,0,1-2.59,7.65,17.565,17.565,0,0,1-7.174,5.15,37.612,37.612,0,0,1-9.764,2.56q-3.1.417-3.1,3.87a6.77,6.77,0,0,0,1.786,4.168Q269.536.29,275.192.29A25.741,25.741,0,0,0,288.171-3.46a12.193,12.193,0,0,1,5.835-2.024,3.069,3.069,0,0,1,2.471,1.012,3.554,3.554,0,0,1,.863,2.381,5.985,5.985,0,0,1-1.905,4.346Q286.206,11.543,274.478,11.721Zm52.154,6.073a28.3,28.3,0,0,1-13.693-3.632,23.171,23.171,0,0,1-9.585-9.347,15.8,15.8,0,0,1-1.965-7.74q0-7.144,3.691-9.645a7.22,7.22,0,0,1,3.989-1.191q5.061,0,6.906,5.656,2.2,6.847,6.847,9.466a14.881,14.881,0,0,0,7.323,2.2,28.228,28.228,0,0,0,3.126-.357A2.57,2.57,0,0,0,335.681.35q0-3.989-9.347-8.871a39.47,39.47,0,0,1-10.3-7.918,13.636,13.636,0,0,1-3.929-9.645,15.43,15.43,0,0,1,4.733-11.133A15.812,15.812,0,0,1,328.6-42.04a13.958,13.958,0,0,1,7,1.875,10.3,10.3,0,0,1,4.674,5.567,4.14,4.14,0,0,1,.3,1.488,2.8,2.8,0,0,1-.536,1.727,2.842,2.842,0,0,1-2.441,1.131,11.881,11.881,0,0,1-3.394-.8,16.158,16.158,0,0,0-5.3-.8,5.649,5.649,0,0,0-3.9,1.25,4.541,4.541,0,0,0-1.4,3.572q0,2.5,3.155,4.882a61.051,61.051,0,0,0,6.906,4.644q3.81,2.262,7.5,4.882,8.335,6.073,8.335,13.4a13.13,13.13,0,0,1-3.989,9.526,23.508,23.508,0,0,1-8.841,5.626A29.224,29.224,0,0,1,326.631,17.794Z" transform="translate(316.425 482.83)" fill="#ffd938"/>
      <g id="Mask_Group_1" data-name="Mask Group 1" transform="translate(311.738 417.393)" clip-path="url(#clip-path)">
        <rect id="Rectangle_1" data-name="Rectangle 1" width="39.373" height="10.161" transform="translate(114.366 47.595) rotate(-14)" fill="#3b3b3b"/>
        <rect id="Rectangle_3" data-name="Rectangle 3" width="41.913" height="10.161" transform="translate(115.846 62.931) rotate(-14)" fill="#3b3b3b"/>
        <rect id="Rectangle_4" data-name="Rectangle 4" width="41.913" height="10.161" transform="translate(119.791 77.653) rotate(-14)" fill="#3b3b3b"/>
      </g>
      <g id="Mask_Group_2" data-name="Mask Group 2" transform="matrix(0.966, 0.259, -0.259, 0.966, 335.463, 328.848)" clip-path="url(#clip-path-2)">
        <rect id="Rectangle_6" data-name="Rectangle 6" width="35.563" height="10.161" transform="translate(180.681 82.729)" fill="#3b3b3b"/>
        <rect id="Rectangle_7" data-name="Rectangle 7" width="38.103" height="10.161" transform="translate(180.681 96.7)" fill="#3b3b3b"/>
        <rect id="Rectangle_8" data-name="Rectangle 8" width="38.103" height="10.161" transform="translate(180.681 110.672)" fill="#3b3b3b"/>
      </g>
      <path id="Path_4" data-name="Path 4" d="M132.066,17.318h-.3a6.088,6.088,0,0,1-5.537-2.977q-2.917-4.882-3.334-17.5-.179-5.358-.179-10.717,0-7.442.536-17.682.834-17.385,1.965-23.993,1.727-9.883,7.263-9.883,7.085,0,7.2,10.24.179,11.848.238,14.318a18.35,18.35,0,0,0,.774,4.852c1.3,1.807,2.115,3.213,1.405,2.3-.9,5.008-6.71,11.913-6.907,19.852-.049,1.953,1.3,12.5,1.929,18.879.3,3.053.346,3.448-.119,3.8a6.323,6.323,0,0,0-.06.893,8.243,8.243,0,0,0,.089,1.161,9.041,9.041,0,0,1,.089,1.28,10.923,10.923,0,0,1-.566,3.274Q136,17.2,132.066,17.318Z" transform="translate(350.838 482.83)" fill="#ffd938"/>
    </g>
  </g>
</svg>
